P3
50 50
255
82 86 89 82 86 89 82 86 89 82 86 89 82 86 89 82 86 89 82 86 89 82 86 89 82 86 89 82 86 89 82 86 89 82 86 89 82 86 89 82 86 89 82 86 89 82 86 89 82 86 89 82 86 89 82 86 89 82 86 89 82 86 89 82 86 89 82 86 89 82 86 89 82 86 89 82 86 89 82 86 89 82 86 89 82 86 89 82 86 89 82 86 89 82 86 89 82 86 89 82 86 89 82 86 89 82 86 89 82 86 89 82 86 89 82 86 89 82 86 89 82 86 89 82 86 89 82 86 89 82 86 89 82 86 89 82 86 89 82 86 89 82 86 89 82 86 89 82 86 89 82 86 89 82 86 89 82 86 89 82 86 89 82 86 89 82 86 89 82 86 89 82 86 89 82 86 89 82 86 89 82 86 89 82 86 89 82 86 89 82 86 89 82 86 89 82 86 89 82 86 89 82 86 89 82 86 89 82 86 89 82 86 89 82 86 89 82 86 89 82 86 89 82 86 89 82 86 89 82 86 89 82 86 89 82 86 89 82 86 89 82 86 89 82 86 89 82 86 89 82 86 89 82 86 89 82 86 89 82 86 89 82 86 89 82 86 89 82 86 89 82 86 89 82 86 89 82 86 89 82 86 89 82 86 89 82 86 89 82 86 89 82 86 89 82 86 89 82 86 89 82 86 89 82 86 89 82 86 89 82 86 89 82 86 89 82 86 89 82 86 89 82 86 89 82 86 89 82 86 89 82 86 89 82 86 89 82 86 89 82 86 89 82 86 89 82 86 89 82 86 89 82 86 89 82 86 89 82 86 89 82 86 89 82 86 89 82 86 89 82 86 89 82 86 89 82 86 89 82 86 89 82 86 89 82 86 89 82 86 89 82 86 89 82 86 89 82 86 89 82 86 89 82 86 89 82 86 89 82 86 89 82 86 89 82 86 89 82 86 89 82 86 89 82 86 89 82 86 89 82 86 89 82 86 89 82 86 89 82 86 89 82 86 89 82 86 89 82 86 89 82 86 89 82 86 89 82 86 89 82 86 89 82 86 89 82 86 89 82 86 89 82 86 89 82 86 89 82 86 89 82 86 89 82 86 89 82 86 89 82 86 89 82 86 89 82 86 89 82 86 89 82 86 89 82 86 89 82 86 89 82 86 89 82 86 89 82 86 89 82 86 89 82 86 89 82 86 89 82 86 89 82 86 89 82 86 89 82 86 89 82 86 89 82 86 89 82 86 89 82 86 89 82 86 89 82 86 89 82 86 89 82 86 89 82 86 89 82 86 89 82 86 89 82 86 89 82 86 89 82 86 89 82 86 89 82 86 89 82 86 89 82 86 89 82 86 89 82 86 89 82 86 89 82 86 89 82 86 89 82 86 89 82 86 89 82 86 89 82 86 89 82 86 89 82 86 89 82 86 89 82 86 89 82 86 89 82 86 89 82 86 89 82 86 89 82 86 89 82 86 89 82 86 89 82 86 89 82 86 89 82 86 89 82 86 89 82 86 89 82 86 89 82 86 89 82 86 89 82 86 89 82 86 89 82 86 89 82 86 89 82 86 89 82 86 89 82 86 89 82 86 89 82 86 89 82 86 89 82 86 89 82 86 89 82 86 89 82 86 89 82 86 89 82 86 89 82 86 89 82 86 89 82 86 89 82 86 89 82 86 89 82 86 89 82 86 89 82 86 89 82 86 89 82 86 89 82 86 89 82 86 89 82 86 89 82 86 89 82 86 89 82 86 89 82 86 89 82 86 89 82 86 89 82 86 89 82 86 89 82 86 89 82 86 89 82 86 89 82 86 89 82 86 89 82 86 89 82 86 89 82 86 89 82 86 89 82 86 89 82 86 89 82 86 89 82 86 89 82 86 89 82 86 89 82 86 89 82 86 89 82 86 89 82 86 89 82 86 89 82 86 89 82 86 89 82 86 89 82 86 89 82 86 89 82 86 89 82 86 89 82 86 89 82 86 89 82 86 89 82 86 89 82 86 89 82 86 89 82 86 89 82 86 89 82 86 89 82 86 89 82 86 89 82 86 89 82 86 89 82 86 89 82 86 89 82 86 89 82 86 89 82 86 89 82 86 89 82 86 89 82 86 89 82 86 89 82 86 89 82 86 89 82 86 89 82 86 89 82 86 89 82 86 89 82 86 89 82 86 89 82 86 89 82 86 89 82 86 89 82 86 89 82 86 89 82 86 89 82 86 89 82 86 89 82 86 89 82 86 89 82 86 89 82 86 89 82 86 89 82 86 89 82 86 89 82 86 89 82 86 89 82 86 89 82 86 89 82 86 89 82 86 89 82 86 89 82 86 89 82 86 89 82 86 89 82 86 89 82 86 89 82 86 89 82 86 89 82 86 89 82 86 89 82 86 89 82 86 89 82 86 89 82 86 89 82 86 89 82 86 89 82 86 89 82 86 89 82 86 89 82 86 89 82 86 89 82 86 89 82 86 89 82 86 89 82 86 89 82 86 89 82 86 89 82 86 89 82 86 89 82 86 89 82 86 89 82 86 89 82 86 89 82 86 89 82 86 89 82 86 89 82 86 89 82 86 89 82 86 89 82 86 89 82 86 89 82 86 89 82 86 89 82 86 89 82 86 89 82 86 89 82 86 89 82 86 89 82 86 89 82 86 89 82 86 89 82 86 89 82 86 89 82 86 89 82 86 89 82 86 89 82 86 89 82 86 89 82 86 89 82 86 89 82 86 89 82 86 89 82 86 89 82 86 89 82 86 89 82 86 89 82 86 89 82 86 89 82 86 89 82 86 89 82 86 89 82 86 89 82 86 89 82 86 89 82 86 89 82 86 89 82 86 89 82 86 89 82 86 89 82 86 89 82 86 89 82 86 89 82 86 89 82 86 89 82 86 89 82 86 89 82 86 89 82 86 89 82 86 89 82 86 89 82 86 89 82 86 89 82 86 89 82 86 89 82 86 89 82 86 89 82 86 89 82 86 89 82 86 89 82 86 89 82 86 89 82 86 89 82 86 89 82 86 89 82 86 89 82 86 89 82 86 89 82 86 89 82 86 89 82 86 89 82 86 89 82 86 89 82 86 89 82 86 89 82 86 89 82 86 89 82 86 89 82 86 89 82 86 89 82 86 89 82 86 89 82 86 89 82 86 89 82 86 89 82 86 89 82 86 89 82 86 89 82 86 89 82 86 89 82 86 89 82 86 89 82 86 89 82 86 89 82 86 89 82 86 89 82 86 89 82 86 89 82 86 89 82 86 89 82 86 89 82 86 89 82 86 89 82 86 89 82 86 89 82 86 89 82 86 89 82 86 89 82 86 89 82 86 89 82 86 89 82 86 89 82 86 89 82 86 89 82 86 89 82 86 89 82 86 89 82 86 89 82 86 89 82 86 89 82 86 89 82 86 89 82 86 89 82 86 89 82 86 89 82 86 89 82 86 89 82 86 89 82 86 89 82 86 89 82 86 89 82 86 89 82 86 89 82 86 89 82 86 89 82 86 89 82 86 89 82 86 89 82 86 89 82 86 89 82 86 89 82 86 89 82 86 89 82 86 89 82 86 89 82 86 89 82 86 89 82 86 89 82 86 89 82 86 89 82 86 89 82 86 89 82 86 89 82 86 89 82 86 89 82 86 89 82 86 89 82 86 89 82 86 89 82 86 89 82 86 89 82 86 89 82 86 89 82 86 89 82 86 89 82 86 89 82 86 89 82 86 89 82 86 89 82 86 89 82 86 89 82 86 89 82 86 89 82 86 89 82 86 89 82 86 89 82 86 89 82 86 89 82 86 89 82 86 89 82 86 89 82 86 89 82 86 89 82 86 89 82 86 89 82 86 89 82 86 89 82 86 89 82 86 89 82 86 89 82 86 89 82 86 89 82 86 89 82 86 89 82 86 89 82 86 89 82 86 89 82 86 89 82 86 89 82 86 89 82 86 89 82 86 89 82 86 89 82 86 89 82 86 89 82 86 89 82 86 89 82 86 89 82 86 89 82 86 89 82 86 89 82 86 89 82 86 89 82 86 89 82 86 89 82 86 89 82 86 89 82 86 89 82 86 89 82 86 89 82 86 89 82 86 89 82 86 89 82 86 89 82 86 89 82 86 89 82 86 89 82 86 89 82 86 89 82 86 89 82 86 89 82 86 89 82 86 89 82 86 89 82 86 89 82 86 89 82 86 89 82 86 89 82 86 89 82 86 89 82 86 89 82 86 89 82 86 89 82 86 89 82 86 89 82 86 89 82 86 89 82 86 89 82 86 89 82 86 89 82 86 89 82 86 89 82 86 89 82 86 89 82 86 89 82 86 89 82 86 89 82 86 89 82 86 89 82 86 89 82 86 89 82 86 89 82 86 89 82 86 89 82 86 89 82 86 89 82 86 89 82 86 89 82 86 89 82 86 89 82 86 89 82 86 89 82 86 89 82 86 89 82 86 89 82 86 89 82 86 89 82 86 89 82 86 89 82 86 89 82 86 89 82 86 89 82 86 89 82 86 89 82 86 89 82 86 89 82 86 89 82 86 89 82 86 89 82 86 89 82 86 89 82 86 89 82 86 89 82 86 89 82 86 89 82 86 89 82 86 89 82 86 89 82 86 89 82 86 89 82 86 89 82 86 89 82 86 89 82 86 89 82 86 89 82 86 89 82 86 89 82 86 89 82 86 89 82 86 89 82 86 89 82 86 89 82 86 89 82 86 89 82 86 89 82 86 89 82 86 89 82 86 89 82 86 89 82 86 89 82 86 89 82 86 89 82 86 89 82 86 89 82 86 89 82 86 89 82 86 89 82 86 89 82 86 89 82 86 89 82 86 89 82 86 89 82 86 89 82 86 89 82 86 89 82 86 89 82 86 89 82 86 89 82 86 89 82 86 89 82 86 89 82 86 89 82 86 89 82 86 89 82 86 89 82 86 89 82 86 89 82 86 89 82 86 89 82 86 89 82 86 89 82 86 89 82 86 89 82 86 89 82 86 89 82 86 89 82 86 89 82 86 89 82 86 89 82 86 89 82 86 89 82 86 89 82 86 89 82 86 89 82 86 89 82 86 89 82 86 89 82 86 89 82 86 89 82 86 89 82 86 89 82 86 89 82 86 89 82 86 89 82 86 89 82 86 89 82 86 89 82 86 89 82 86 89 82 86 89 82 86 89 82 86 89 82 86 89 82 86 89 82 86 89 82 86 89 82 86 89 82 86 89 82 86 89 82 86 89 82 86 89 82 86 89 82 86 89 82 86 89 82 86 89 82 86 89 82 86 89 82 86 89 82 86 89 82 86 89 82 86 89 82 86 89 82 86 89 82 86 89 82 86 89 82 86 89 82 86 89 82 86 89 82 86 89 82 86 89 82 86 89 82 86 89 82 86 89 82 86 89 82 86 89 82 86 89 82 86 89 82 86 89 82 86 89 82 86 89 82 86 89 82 86 89 82 86 89 82 86 89 82 86 89 82 86 89 82 86 89 82 86 89 82 86 89 82 86 89 82 86 89 82 86 89 82 86 89 82 86 89 82 86 89 82 86 89 82 86 89 82 86 89 82 86 89 82 86 89 82 86 89 82 86 89 82 86 89 82 86 89 82 86 89 82 86 89 82 86 89 82 86 89 82 86 89 82 86 89 82 86 89 82 86 89 82 86 89 82 86 89 82 86 89 82 86 89 82 86 89 82 86 89 82 86 89 82 86 89 82 86 89 82 86 89 82 86 89 82 86 89 82 86 89 82 86 89 82 86 89 82 86 89 82 86 89 82 86 89 82 86 89 82 86 89 82 86 89 82 86 89 82 86 89 82 86 89 82 86 89 82 86 89 82 86 89 82 86 89 82 86 89 82 86 89 82 86 89 82 86 89 82 86 89 82 86 89 82 86 89 82 86 89 82 86 89 82 86 89 82 86 89 82 86 89 82 86 89 82 86 89 82 86 89 82 86 89 82 86 89 82 86 89 82 86 89 82 86 89 82 86 89 82 86 89 82 86 89 82 86 89 82 86 89 82 86 89 82 86 89 82 86 89 82 86 89 82 86 89 82 86 89 82 86 89 82 86 89 82 86 89 82 86 89 82 86 89 82 86 89 82 86 89 82 86 89 82 86 89 82 86 89 82 86 89 82 86 89 82 86 89 82 86 89 82 86 89 82 86 89 82 86 89 82 86 89 82 86 89 82 86 89 82 86 89 82 86 89 82 86 89 82 86 89 82 86 89 82 86 89 82 86 89 82 86 89 82 86 89 82 86 89 82 86 89 82 86 89 82 86 89 82 86 89 82 86 89 82 86 89 82 86 89 82 86 89 82 86 89 82 86 89 82 86 89 82 86 89 82 86 89 82 86 89 82 86 89 82 86 89 82 86 89 82 86 89 82 86 89 82 86 89 82 86 89 82 86 89 82 86 89 82 86 89 82 86 89 82 86 89 82 86 89 82 86 89 82 86 89 82 86 89 82 86 89 82 86 89 82 86 89 82 86 89 82 86 89 82 86 89 82 86 89 82 86 89 82 86 89 82 86 89 82 86 89 82 86 89 82 86 89 82 86 89 82 86 89 82 86 89 82 86 89 82 86 89 82 86 89 82 86 89 82 86 89 82 86 89 82 86 89 82 86 89 82 86 89 82 86 89 82 86 89 82 86 89 82 86 89 82 86 89 82 86 89 82 86 89 82 86 89 82 86 89 82 86 89 82 86 89 82 86 89 82 86 89 82 86 89 82 86 89 82 86 89 82 86 89 82 86 89 82 86 89 82 86 89 82 86 89 82 86 89 82 86 89 82 86 89 82 86 89 82 86 89 82 86 89 82 86 89 82 86 89 82 86 89 82 86 89 82 86 89 82 86 89 82 86 89 0 255 0 0 255 0 0 255 0 0 255 0 0 255 0 0 255 0 0 255 0 0 255 0 82 86 89 82 86 89 82 86 89 255 0 0 255 0 0 255 0 0 255 0 0 255 0 0 255 0 0 255 0 0 255 0 0 82 86 89 82 86 89 82 86 89 82 86 89 82 86 89 82 86 89 82 86 89 82 86 89 82 86 89 82 86 89 82 86 89 82 86 89 82 86 89 82 86 89 82 86 89 82 86 89 82 86 89 82 86 89 82 86 89 82 86 89 82 86 89 82 86 89 82 86 89 82 86 89 82 86 89 82 86 89 82 86 89 82 86 89 82 86 89 0 255 0 0 255 0 0 255 0 0 255 0 0 255 0 0 255 0 0 255 0 0 255 0 0 255 0 0 255 0 0 255 0 255 0 0 255 0 0 255 0 0 255 0 0 255 0 0 255 0 0 255 0 0 255 0 0 255 0 0 255 0 0 255 0 0 255 0 0 82 86 89 82 86 89 82 86 89 82 86 89 82 86 89 82 86 89 82 86 89 82 86 89 82 86 89 82 86 89 82 86 89 82 86 89 82 86 89 82 86 89 82 86 89 82 86 89 82 86 89 82 86 89 82 86 89 82 86 89 82 86 89 82 86 89 82 86 89 82 86 89 82 86 89 0 255 0 0 255 0 0 255 0 0 255 0 0 255 0 0 255 0 0 255 0 0 255 0 0 255 0 0 255 0 0 255 0 0 255 0 0 255 0 255 0 0 255 0 0 255 0 0 255 0 0 255 0 0 255 0 0 255 0 0 255 0 0 255 0 0 255 0 0 255 0 0 255 0 0 255 0 0 82 86 89 82 86 89 82 86 89 82 86 89 82 86 89 82 86 89 82 86 89 82 86 89 82 86 89 82 86 89 82 86 89 82 86 89 82 86 89 82 86 89 82 86 89 82 86 89 82 86 89 82 86 89 82 86 89 82 86 89 82 86 89 82 86 89 82 86 89 0 255 0 0 255 0 0 255 0 0 255 0 0 255 0 0 255 0 0 255 0 0 255 0 0 255 0 0 255 0 0 255 0 0 255 0 0 255 0 255 0 0 255 0 0 255 0 0 255 0 0 255 0 0 255 0 0 255 0 0 255 0 0 255 0 0 255 0 0 255 0 0 255 0 0 255 0 0 255 0 0 255 0 0 82 86 89 82 86 89 82 86 89 82 86 89 82 86 89 82 86 89 82 86 89 82 86 89 82 86 89 82 86 89 82 86 89 82 86 89 82 86 89 82 86 89 82 86 89 82 86 89 82 86 89 82 86 89 82 86 89 82 86 89 82 86 89 0 255 0 0 255 0 0 255 0 0 255 0 0 255 0 0 255 0 0 255 0 0 255 0 0 255 0 0 255 0 0 255 0 0 255 0 0 255 0 0 255 0 255 0 0 255 0 0 255 0 0 255 0 0 255 0 0 255 0 0 255 0 0 255 0 0 255 0 0 255 0 0 255 0 0 255 0 0 255 0 0 255 0 0 255 0 0 255 0 0 82 86 89 82 86 89 82 86 89 82 86 89 82 86 89 82 86 89 82 86 89 82 86 89 82 86 89 82 86 89 82 86 89 82 86 89 82 86 89 82 86 89 82 86 89 82 86 89 82 86 89 82 86 89 82 86 89 0 255 0 0 255 0 0 255 0 0 255 0 0 255 0 0 255 0 0 255 0 0 255 0 0 255 0 0 255 0 0 255 0 0 255 0 0 255 0 0 255 0 0 255 0 255 0 0 255 0 0 255 0 0 255 0 0 255 0 0 255 0 0 255 0 0 255 0 0 255 0 0 255 0 0 255 0 0 255 0 0 255 0 0 255 0 0 255 0 0 255 0 0 255 0 0 82 86 89 82 86 89 82 86 89 82 86 89 82 86 89 82 86 89 82 86 89 82 86 89 82 86 89 82 86 89 82 86 89 82 86 89 82 86 89 82 86 89 82 86 89 82 86 89 82 86 89 82 86 89 0 255 0 0 255 0 0 255 0 0 255 0 0 255 0 0 255 0 0 255 0 0 255 0 0 255 0 0 255 0 0 255 0 0 255 0 0 255 0 0 255 0 0 255 0 255 0 0 255 0 0 255 0 0 255 0 0 255 0 0 255 0 0 255 0 0 255 0 0 255 0 0 255 0 0 255 0 0 255 0 0 255 0 0 255 0 0 255 0 0 255 0 0 255 0 0 82 86 89 82 86 89 82 86 89 82 86 89 82 86 89 82 86 89 82 86 89 82 86 89 82 86 89 82 86 89 82 86 89 82 86 89 82 86 89 82 86 89 82 86 89 82 86 89 82 86 89 0 255 0 0 255 0 0 255 0 0 255 0 0 255 0 0 255 0 0 255 0 0 255 0 0 255 0 0 255 0 0 255 0 0 255 0 0 255 0 0 255 0 0 255 0 0 255 0 255 0 0 255 0 0 255 0 0 255 0 0 255 0 0 255 0 0 255 0 0 255 0 0 255 0 0 255 0 0 255 0 0 255 0 0 255 0 0 255 0 0 255 0 0 255 0 0 255 0 0 82 86 89 82 86 89 82 86 89 82 86 89 82 86 89 82 86 89 82 86 89 82 86 89 82 86 89 82 86 89 82 86 89 82 86 89 82 86 89 82 86 89 82 86 89 82 86 89 82 86 89 0 255 0 0 255 0 0 255 0 0 255 0 0 255 0 0 255 0 0 255 0 0 255 0 0 255 0 0 255 0 0 255 0 0 255 0 0 255 0 0 255 0 0 255 0 0 255 0 255 0 0 255 0 0 255 0 0 255 0 0 255 0 0 255 0 0 255 0 0 255 0 0 255 0 0 255 0 0 255 0 0 255 0 0 255 0 0 255 0 0 255 0 0 255 0 0 255 0 0 255 0 0 82 86 89 82 86 89 82 86 89 82 86 89 82 86 89 82 86 89 82 86 89 82 86 89 82 86 89 82 86 89 82 86 89 82 86 89 82 86 89 82 86 89 82 86 89 0 255 0 0 255 0 0 255 0 0 255 0 0 255 0 0 255 0 0 255 0 0 255 0 0 255 0 0 255 0 0 255 0 0 255 0 0 255 0 0 255 0 0 255 0 0 255 0 255 0 0 255 0 0 255 0 0 255 0 0 255 0 0 255 0 0 255 0 0 255 0 0 255 0 0 255 0 0 255 0 0 255 0 0 255 0 0 255 0 0 255 0 0 255 0 0 255 0 0 255 0 0 255 0 0 82 86 89 82 86 89 82 86 89 82 86 89 82 86 89 82 86 89 82 86 89 82 86 89 82 86 89 82 86 89 82 86 89 82 86 89 82 86 89 82 86 89 82 86 89 0 255 0 0 255 0 0 255 0 0 255 0 0 255 0 0 255 0 0 255 0 0 255 0 0 255 0 0 255 0 0 255 0 0 255 0 0 255 0 0 255 0 0 255 0 0 255 0 255 0 0 255 0 0 255 0 0 255 0 0 255 0 0 255 0 0 255 0 0 255 0 0 255 0 0 255 0 0 255 0 0 255 0 0 255 0 0 255 0 0 255 0 0 255 0 0 255 0 0 255 0 0 255 0 0 82 86 89 82 86 89 82 86 89 82 86 89 82 86 89 82 86 89 82 86 89 82 86 89 82 86 89 82 86 89 82 86 89 82 86 89 82 86 89 82 86 89 82 86 89 0 255 0 0 255 0 0 255 0 0 255 0 0 255 0 0 255 0 0 255 0 0 255 0 0 255 0 0 255 0 0 255 0 0 255 0 0 255 0 0 255 0 0 255 0 0 255 0 255 0 0 255 0 0 255 0 0 255 0 0 255 0 0 255 0 0 255 0 0 255 0 0 255 0 0 255 0 0 255 0 0 255 0 0 255 0 0 255 0 0 255 0 0 255 0 0 255 0 0 255 0 0 255 0 0 82 86 89 82 86 89 82 86 89 82 86 89 82 86 89 82 86 89 82 86 89 82 86 89 82 86 89 82 86 89 82 86 89 82 86 89 82 86 89 82 86 89 82 86 89 0 255 0 0 255 0 0 255 0 0 255 0 0 255 0 0 255 0 0 255 0 0 255 0 0 255 0 0 255 0 0 255 0 0 255 0 0 255 0 0 255 0 0 255 0 0 255 0 255 0 0 255 0 0 255 0 0 255 0 0 255 0 0 255 0 0 255 0 0 255 0 0 255 0 0 255 0 0 255 0 0 255 0 0 255 0 0 255 0 0 255 0 0 255 0 0 255 0 0 255 0 0 255 0 0 82 86 89 82 86 89 82 86 89 82 86 89 82 86 89 82 86 89 82 86 89 82 86 89 82 86 89 82 86 89 82 86 89 82 86 89 82 86 89 82 86 89 82 86 89 0 255 0 0 255 0 0 255 0 0 255 0 0 255 0 0 255 0 0 255 0 0 255 0 0 255 0 0 255 0 0 255 0 0 255 0 0 255 0 0 255 0 0 255 0 0 255 0 255 0 0 255 0 0 255 0 0 255 0 0 255 0 0 255 0 0 255 0 0 255 0 0 255 0 0 255 0 0 255 0 0 255 0 0 255 0 0 255 0 0 255 0 0 255 0 0 255 0 0 255 0 0 255 0 0 82 86 89 82 86 89 82 86 89 82 86 89 82 86 89 82 86 89 82 86 89 82 86 89 82 86 89 82 86 89 82 86 89 82 86 89 82 86 89 82 86 89 82 86 89 82 86 89 0 255 0 0 255 0 0 255 0 0 255 0 0 255 0 0 255 0 0 255 0 0 255 0 0 255 0 0 255 0 0 255 0 0 255 0 0 255 0 0 255 0 0 255 0 255 0 0 255 0 0 255 0 0 255 0 0 255 0 0 255 0 0 255 0 0 255 0 0 255 0 0 255 0 0 255 0 0 255 0 0 255 0 0 255 0 0 255 0 0 255 0 0 255 0 0 255 0 0 82 86 89 82 86 89 82 86 89 82 86 89 82 86 89 82 86 89 82 86 89 82 86 89 82 86 89 82 86 89 82 86 89 82 86 89 82 86 89 82 86 89 82 86 89 82 86 89 82 86 89 0 255 0 0 255 0 0 255 0 0 255 0 0 255 0 0 255 0 0 255 0 0 255 0 0 255 0 0 255 0 0 255 0 0 255 0 0 255 0 0 255 0 0 255 0 255 0 0 255 0 0 255 0 0 255 0 0 255 0 0 255 0 0 255 0 0 255 0 0 255 0 0 255 0 0 255 0 0 255 0 0 255 0 0 255 0 0 255 0 0 255 0 0 255 0 0 255 0 0 82 86 89 82 86 89 82 86 89 82 86 89 82 86 89 82 86 89 82 86 89 82 86 89 82 86 89 82 86 89 82 86 89 82 86 89 82 86 89 82 86 89 82 86 89 82 86 89 82 86 89 0 255 0 0 255 0 0 255 0 0 255 0 0 255 0 0 255 0 0 255 0 0 255 0 0 255 0 0 255 0 0 255 0 0 255 0 0 255 0 0 255 0 0 255 0 0 255 0 255 0 0 255 0 0 255 0 0 255 0 0 255 0 0 255 0 0 255 0 0 255 0 0 255 0 0 255 0 0 255 0 0 255 0 0 255 0 0 255 0 0 255 0 0 255 0 0 82 86 89 82 86 89 82 86 89 82 86 89 82 86 89 82 86 89 82 86 89 82 86 89 82 86 89 82 86 89 82 86 89 82 86 89 82 86 89 82 86 89 82 86 89 82 86 89 82 86 89 82 86 89 82 86 89 0 255 0 0 255 0 0 255 0 0 255 0 0 255 0 0 255 0 0 255 0 0 255 0 0 255 0 0 255 0 0 255 0 0 255 0 0 255 0 0 255 0 0 255 0 255 0 0 255 0 0 255 0 0 255 0 0 255 0 0 255 0 0 255 0 0 255 0 0 255 0 0 255 0 0 255 0 0 255 0 0 255 0 0 255 0 0 255 0 0 255 0 0 82 86 89 82 86 89 82 86 89 82 86 89 82 86 89 82 86 89 82 86 89 82 86 89 82 86 89 82 86 89 82 86 89 82 86 89 82 86 89 82 86 89 82 86 89 82 86 89 82 86 89 82 86 89 82 86 89 82 86 89 0 255 0 0 255 0 0 255 0 0 255 0 0 255 0 0 255 0 0 255 0 0 255 0 0 255 0 0 255 0 0 255 0 0 255 0 0 255 0 0 255 0 255 0 0 255 0 0 255 0 0 255 0 0 255 0 0 255 0 0 255 0 0 255 0 0 255 0 0 255 0 0 255 0 0 255 0 0 255 0 0 255 0 0 255 0 0 82 86 89 82 86 89 82 86 89 82 86 89 82 86 89 82 86 89 82 86 89 82 86 89 82 86 89 82 86 89 82 86 89 82 86 89 82 86 89 82 86 89 82 86 89 82 86 89 82 86 89 82 86 89 82 86 89 82 86 89 82 86 89 82 86 89 0 255 0 0 255 0 0 255 0 0 255 0 0 255 0 0 255 0 0 255 0 0 255 0 0 255 0 0 255 0 0 255 0 0 255 0 0 255 0 255 0 0 255 0 0 255 0 0 255 0 0 255 0 0 255 0 0 255 0 0 255 0 0 255 0 0 255 0 0 255 0 0 255 0 0 255 0 0 255 0 0 82 86 89 82 86 89 82 86 89 82 86 89 82 86 89 82 86 89 82 86 89 82 86 89 82 86 89 82 86 89 82 86 89 82 86 89 82 86 89 82 86 89 82 86 89 82 86 89 82 86 89 82 86 89 82 86 89 82 86 89 82 86 89 82 86 89 82 86 89 82 86 89 0 255 0 0 255 0 0 255 0 0 255 0 0 255 0 0 255 0 0 255 0 0 255 0 0 255 0 0 255 0 0 255 0 0 255 0 82 86 89 255 0 0 255 0 0 255 0 0 255 0 0 255 0 0 255 0 0 255 0 0 255 0 0 255 0 0 255 0 0 255 0 0 255 0 0 82 86 89 82 86 89 82 86 89 82 86 89 82 86 89 82 86 89 82 86 89 82 86 89 82 86 89 82 86 89 82 86 89 82 86 89 82 86 89 82 86 89 82 86 89 82 86 89 82 86 89 82 86 89 82 86 89 82 86 89 82 86 89 82 86 89 82 86 89 82 86 89 82 86 89 82 86 89 82 86 89 0 255 0 0 255 0 0 255 0 0 255 0 0 255 0 0 255 0 0 255 0 0 255 0 82 86 89 82 86 89 82 86 89 82 86 89 82 86 89 255 0 0 255 0 0 255 0 0 255 0 0 255 0 0 255 0 0 255 0 0 255 0 0 82 86 89 82 86 89 82 86 89 82 86 89 82 86 89 82 86 89 82 86 89 82 86 89 82 86 89 82 86 89 82 86 89 82 86 89 82 86 89 82 86 89 82 86 89 82 86 89 82 86 89 82 86 89 82 86 89 82 86 89 82 86 89 82 86 89 82 86 89 82 86 89 82 86 89 82 86 89 82 86 89 82 86 89 82 86 89 82 86 89 82 86 89 82 86 89 82 86 89 82 86 89 82 86 89 82 86 89 82 86 89 82 86 89 82 86 89 82 86 89 82 86 89 82 86 89 82 86 89 82 86 89 82 86 89 82 86 89 82 86 89 82 86 89 82 86 89 82 86 89 82 86 89 82 86 89 82 86 89 82 86 89 82 86 89 82 86 89 82 86 89 82 86 89 82 86 89 82 86 89 82 86 89 82 86 89 82 86 89 82 86 89 82 86 89 82 86 89 82 86 89 82 86 89 82 86 89 82 86 89 82 86 89 82 86 89 82 86 89 82 86 89 82 86 89 82 86 89 82 86 89 82 86 89 82 86 89 82 86 89 82 86 89 82 86 89 82 86 89 82 86 89 82 86 89 82 86 89 82 86 89 82 86 89 82 86 89 82 86 89 82 86 89 82 86 89 82 86 89 82 86 89 82 86 89 82 86 89 82 86 89 82 86 89 82 86 89 82 86 89 82 86 89 82 86 89 82 86 89 82 86 89 82 86 89 82 86 89 82 86 89 82 86 89 82 86 89 82 86 89 82 86 89 82 86 89 82 86 89 82 86 89 82 86 89 82 86 89 82 86 89 82 86 89 82 86 89 82 86 89 82 86 89 82 86 89 82 86 89 82 86 89 82 86 89 82 86 89 82 86 89 82 86 89 82 86 89 82 86 89 82 86 89 82 86 89 82 86 89 82 86 89 82 86 89 82 86 89 82 86 89 82 86 89 82 86 89 82 86 89 82 86 89 82 86 89 82 86 89 82 86 89 82 86 89 82 86 89 82 86 89 82 86 89 82 86 89 82 86 89 82 86 89 82 86 89 82 86 89 82 86 89 82 86 89 82 86 89 82 86 89 82 86 89 82 86 89 82 86 89 82 86 89 82 86 89 82 86 89 82 86 89 82 86 89 82 86 89 82 86 89 82 86 89 82 86 89 82 86 89 82 86 89 82 86 89 82 86 89 82 86 89 82 86 89 82 86 89 82 86 89 82 86 89 82 86 89 82 86 89 82 86 89 82 86 89 82 86 89 82 86 89 82 86 89 82 86 89 82 86 89 82 86 89 82 86 89 82 86 89 82 86 89 82 86 89 82 86 89 82 86 89 82 86 89 82 86 89 82 86 89 82 86 89 82 86 89 82 86 89 82 86 89 82 86 89 82 86 89 82 86 89 82 86 89 82 86 89 82 86 89 82 86 89 82 86 89 82 86 89 82 86 89 82 86 89 82 86 89 82 86 89 82 86 89 82 86 89 82 86 89 82 86 89 82 86 89 82 86 89 82 86 89 82 86 89 82 86 89 82 86 89 82 86 89 82 86 89 82 86 89 82 86 89 82 86 89 82 86 89 82 86 89 82 86 89 82 86 89 82 86 89 82 86 89 82 86 89 82 86 89 82 86 89 82 86 89 82 86 89 82 86 89 82 86 89 82 86 89 82 86 89 82 86 89 82 86 89 82 86 89 82 86 89 82 86 89 82 86 89 82 86 89 82 86 89 82 86 89 82 86 89 82 86 89 82 86 89 82 86 89 82 86 89 82 86 89 82 86 89 82 86 89 82 86 89 82 86 89 82 86 89 82 86 89 82 86 89 82 86 89 82 86 89 82 86 89 82 86 89 82 86 89 82 86 89 82 86 89 82 86 89 82 86 89 82 86 89 82 86 89 82 86 89 82 86 89 82 86 89 82 86 89 82 86 89 82 86 89 82 86 89 82 86 89 82 86 89 82 86 89 82 86 89 82 86 89 82 86 89 82 86 89 82 86 89 82 86 89 82 86 89 82 86 89 82 86 89 82 86 89 82 86 89 82 86 89 82 86 89 82 86 89 82 86 89 82 86 89 82 86 89 82 86 89 82 86 89 82 86 89 82 86 89 82 86 89 82 86 89 82 86 89 82 86 89 82 86 89 82 86 89 82 86 89 82 86 89 82 86 89 82 86 89 82 86 89 82 86 89 82 86 89 82 86 89 82 86 89 82 86 89 82 86 89 82 86 89 82 86 89 82 86 89 82 86 89 82 86 89 82 86 89 82 86 89 82 86 89 82 86 89 82 86 89 82 86 89 82 86 89 82 86 89 82 86 89 82 86 89 82 86 89 82 86 89 82 86 89 82 86 89 82 86 89 82 86 89 82 86 89 82 86 89 82 86 89 82 86 89 82 86 89 82 86 89 82 86 89 82 86 89 82 86 89 82 86 89 82 86 89 82 86 89 82 86 89 82 86 89 82 86 89 82 86 89 82 86 89 82 86 89 82 86 89 82 86 89 82 86 89 82 86 89 82 86 89 82 86 89 82 86 89 82 86 89 82 86 89 82 86 89 82 86 89 82 86 89 82 86 89 82 86 89 82 86 89 82 86 89 82 86 89 82 86 89 82 86 89 82 86 89 82 86 89 82 86 89 82 86 89 82 86 89 82 86 89 82 86 89 82 86 89 82 86 89 82 86 89 82 86 89 82 86 89 82 86 89 82 86 89 82 86 89 82 86 89 82 86 89 82 86 89 82 86 89 82 86 89 82 86 89 82 86 89 82 86 89 82 86 89 82 86 89 82 86 89 82 86 89 82 86 89 82 86 89 82 86 89 82 86 89 82 86 89 82 86 89 82 86 89 82 86 89 82 86 89 82 86 89 82 86 89 